<?xml version="1.0" ?><svg viewBox="0 0 48 48" xmlns="http://www.w3.org/2000/svg" xmlns:xlink="http://www.w3.org/1999/xlink"><defs><style>.cls-1{fill:url(#linear-gradient);}.cls-2{fill:#fff;}</style><linearGradient gradientUnits="userSpaceOnUse" id="linear-gradient" x1="24.66" x2="24.66" y1="11.87" y2="38.2"><stop offset="0" stop-color="#a9db3b"/><stop offset="1" stop-color="#92b93b"/></linearGradient></defs><title/><g id="icons"><g data-name="Layer 3" id="Layer_3"><path class="cls-1" d="M37.32,8.33H28.26a2.83,2.83,0,0,0-2,.84L9.84,25.56a2.88,2.88,0,0,0,0,4.05l9.22,9.22a2.86,2.86,0,0,0,4.05,0L39.48,22.45a2.85,2.85,0,0,0,.84-2.06l-.14-9.24A2.86,2.86,0,0,0,37.32,8.33ZM35,15.84A2,2,0,1,1,37,13.79,2,2,0,0,1,35,15.84Z"/><path class="cls-2" d="M25.19,17.24a1,1,0,1,0-2,.15l1,13.37a1,1,0,0,0,1.07.92,1,1,0,0,0,.93-1,.19.19,0,0,0,0-.08Zm5.13,2.94a3,3,0,1,0,3,3A3,3,0,0,0,30.32,20.18Zm0,4a1,1,0,1,1,1-1A1,1,0,0,1,30.32,24.18ZM19,21.49a3,3,0,1,0,3,3A3,3,0,0,0,19,21.49Zm0,4a1,1,0,1,1,1-1A1,1,0,0,1,19,25.49Z"/></g></g></svg>