<?xml version="1.0" ?><svg xmlns="http://www.w3.org/2000/svg" xmlns:xlink="http://www.w3.org/1999/xlink" version="1.1" viewBox="0 0 32 32" style="enable-background:new 0 0 32 32;" xml:space="preserve"><style type="text/css">
	.st0{display:none;}
	.st1{display:inline;}
	.st2{fill:#CDF6F9;}
	.st3{fill:#FFFFFF;}
	.st4{fill:#1A83A8;}
</style><g id="Grid" class="st0"/><g id="Credit_Card"/><g id="Receipt"/><g id="No_Balance"/><g id="Online_Payment"/><g id="Wallet_1_"/><g id="Balance_Limit"/><g id="Invoice"/><g id="Money"/><g id="Payment"/><g id="Coin"/><g id="Insert_Card"/><g id="Global_Payment"/><g id="Bill"/><g id="Transaction"/><g id="Payment_Method"/><g id="Secure_Payment"><path class="st2" d="M5.25,24.53C3.455,24.53,2,23.075,2,21.28V7.31c0-1.787,1.463-3.25,3.25-3.25h21.5   c1.788,0,3.25,1.463,3.25,3.25v13.97c0,1.795-1.455,3.25-3.25,3.25H5.25z"/><rect x="2" y="9.06" class="st3" width="28" height="4.09"/><path class="st3" d="M25.664,27.793c3.823-1.661,4.3-5.954,4.336-7.618c0.009-0.403-0.213-0.775-0.574-0.956l-4.011-2.015   c-0.294-0.148-0.641-0.148-0.935,0l-4.011,2.015c-0.36,0.181-0.582,0.553-0.574,0.956c0.037,1.663,0.513,5.957,4.336,7.618   C24.687,27.991,25.208,27.991,25.664,27.793z"/><path class="st4" d="M26.75,3.158H5.25c-2.288,0-4.15,1.862-4.15,4.15v13.97c0,2.288,1.862,4.15,4.15,4.15h11.87   c0.497,0,0.9-0.403,0.9-0.9s-0.403-0.9-0.9-0.9H5.25c-1.296,0-2.35-1.054-2.35-2.35v-7.23h26.2v1.54c0,0.497,0.403,0.9,0.9,0.9   s0.9-0.403,0.9-0.9V7.309C30.9,5.021,29.038,3.158,26.75,3.158z M5.25,4.959h21.5c1.296,0,2.35,1.054,2.35,2.35v0.855H2.9V7.309   C2.9,6.013,3.954,4.959,5.25,4.959z M2.9,12.247V9.965h26.2v2.282H2.9z"/><path class="st4" d="M6.308,17.735h2.757c0.497,0,0.9-0.403,0.9-0.9s-0.403-0.9-0.9-0.9H6.308c-0.497,0-0.9,0.403-0.9,0.9   S5.811,17.735,6.308,17.735z"/><path class="st4" d="M6.308,21.124h5.514c0.497,0,0.9-0.403,0.9-0.9s-0.403-0.9-0.9-0.9H6.308c-0.497,0-0.9,0.403-0.9,0.9   S5.811,21.124,6.308,21.124z"/><path class="st4" d="M26,20.881l-1.611,1.299l-0.35-0.446c-0.306-0.389-0.873-0.46-1.264-0.152   c-0.391,0.307-0.46,0.872-0.153,1.264l0.913,1.164c0.149,0.189,0.367,0.312,0.606,0.339c0.034,0.004,0.068,0.006,0.102,0.006   c0.205,0,0.404-0.07,0.565-0.199l2.321-1.871c0.387-0.313,0.448-0.879,0.136-1.266C26.954,20.63,26.387,20.57,26,20.881z"/><path class="st4" d="M29.831,18.416l-4.012-2.017c-0.547-0.274-1.197-0.275-1.743,0.001l-4.01,2.015   c-0.667,0.334-1.086,1.033-1.07,1.78c0.042,1.914,0.602,6.566,4.877,8.423c0.341,0.148,0.708,0.223,1.075,0.223   s0.733-0.074,1.074-0.223c4.275-1.856,4.835-6.509,4.877-8.422C30.917,19.449,30.497,18.75,29.831,18.416z M25.305,26.968   C25.305,26.968,25.305,26.968,25.305,26.968c-0.227,0.098-0.487,0.098-0.715,0c-3.322-1.442-3.761-5.244-3.795-6.812   c-0.001-0.057,0.028-0.107,0.078-0.133l4.009-2.015c0.021-0.01,0.043-0.016,0.065-0.016s0.043,0.005,0.063,0.015l4.012,2.017   c0.049,0.024,0.078,0.074,0.077,0.132C29.065,21.724,28.626,25.525,25.305,26.968z"/></g><g id="Add_Payment"/><g id="Reduce_Payment"/><g id="ATM"/><g id="Transfer"/><g id="Bank"/><g id="Money_Bag"/><g id="Online_Payment_1_"/><g id="Online_Banking"/><g id="Banking"/></svg>